<mxfile host="app.diagrams.net" modified="2024-05-10T07:02:25.773Z" agent="Mozilla/5.0 (Windows NT 10.0; Win64; x64) AppleWebKit/537.36 (KHTML, like Gecko) Chrome/124.0.0.0 Safari/537.36" etag="-3xw8v3JRHIs9DbfEHEK" version="24.2.8" type="github">
  <diagram name="Page-1" id="52a04d89-c75d-2922-d76d-85b35f80e030">
    <mxGraphModel dx="1434" dy="1596" grid="1" gridSize="10" guides="1" tooltips="1" connect="1" arrows="1" fold="1" page="1" pageScale="1" pageWidth="1100" pageHeight="850" background="none" math="0" shadow="0">
      <root>
        <mxCell id="0" />
        <mxCell id="1" parent="0" />
        <mxCell id="6GHNwG2XfLSbCcEsgPR_-31" style="edgeStyle=orthogonalEdgeStyle;rounded=0;orthogonalLoop=1;jettySize=auto;html=1;exitX=1;exitY=0.5;exitDx=0;exitDy=0;entryX=0;entryY=0.5;entryDx=0;entryDy=0;" edge="1" parent="1" source="6GHNwG2XfLSbCcEsgPR_-1" target="6GHNwG2XfLSbCcEsgPR_-3">
          <mxGeometry relative="1" as="geometry" />
        </mxCell>
        <mxCell id="6GHNwG2XfLSbCcEsgPR_-1" value="解析歌词" style="rounded=1;whiteSpace=wrap;html=1;fillColor=#ffe6cc;strokeColor=#d79b00;" vertex="1" parent="1">
          <mxGeometry x="350" y="-20" width="120" height="60" as="geometry" />
        </mxCell>
        <mxCell id="6GHNwG2XfLSbCcEsgPR_-32" style="edgeStyle=orthogonalEdgeStyle;rounded=0;orthogonalLoop=1;jettySize=auto;html=1;exitX=1;exitY=0.5;exitDx=0;exitDy=0;entryX=0;entryY=0.5;entryDx=0;entryDy=0;" edge="1" parent="1" source="6GHNwG2XfLSbCcEsgPR_-3" target="6GHNwG2XfLSbCcEsgPR_-6">
          <mxGeometry relative="1" as="geometry" />
        </mxCell>
        <mxCell id="6GHNwG2XfLSbCcEsgPR_-3" value="歌词分段" style="rounded=1;whiteSpace=wrap;html=1;fillColor=#ffe6cc;strokeColor=#d79b00;" vertex="1" parent="1">
          <mxGeometry x="500" y="-20" width="120" height="60" as="geometry" />
        </mxCell>
        <mxCell id="6GHNwG2XfLSbCcEsgPR_-33" style="edgeStyle=orthogonalEdgeStyle;rounded=0;orthogonalLoop=1;jettySize=auto;html=1;exitX=1;exitY=0.5;exitDx=0;exitDy=0;entryX=0;entryY=0.5;entryDx=0;entryDy=0;" edge="1" parent="1" source="6GHNwG2XfLSbCcEsgPR_-6" target="6GHNwG2XfLSbCcEsgPR_-7">
          <mxGeometry relative="1" as="geometry" />
        </mxCell>
        <mxCell id="6GHNwG2XfLSbCcEsgPR_-6" value="AI生成提示词" style="rounded=1;whiteSpace=wrap;html=1;fillColor=#ffe6cc;strokeColor=#d79b00;" vertex="1" parent="1">
          <mxGeometry x="650" y="-20" width="120" height="60" as="geometry" />
        </mxCell>
        <mxCell id="6GHNwG2XfLSbCcEsgPR_-11" value="" style="edgeStyle=orthogonalEdgeStyle;rounded=0;orthogonalLoop=1;jettySize=auto;html=1;" edge="1" parent="1" source="6GHNwG2XfLSbCcEsgPR_-7" target="6GHNwG2XfLSbCcEsgPR_-10">
          <mxGeometry relative="1" as="geometry" />
        </mxCell>
        <mxCell id="6GHNwG2XfLSbCcEsgPR_-7" value="SD绘画" style="rounded=1;whiteSpace=wrap;html=1;fillColor=#ffe6cc;strokeColor=#d79b00;" vertex="1" parent="1">
          <mxGeometry x="800" y="-20" width="120" height="60" as="geometry" />
        </mxCell>
        <mxCell id="6GHNwG2XfLSbCcEsgPR_-13" value="" style="edgeStyle=orthogonalEdgeStyle;rounded=0;orthogonalLoop=1;jettySize=auto;html=1;" edge="1" parent="1" source="6GHNwG2XfLSbCcEsgPR_-10" target="6GHNwG2XfLSbCcEsgPR_-12">
          <mxGeometry relative="1" as="geometry" />
        </mxCell>
        <mxCell id="6GHNwG2XfLSbCcEsgPR_-37" value="Y" style="edgeLabel;html=1;align=center;verticalAlign=middle;resizable=0;points=[];" vertex="1" connectable="0" parent="6GHNwG2XfLSbCcEsgPR_-13">
          <mxGeometry x="-0.44" y="4" relative="1" as="geometry">
            <mxPoint y="4" as="offset" />
          </mxGeometry>
        </mxCell>
        <mxCell id="6GHNwG2XfLSbCcEsgPR_-43" style="edgeStyle=orthogonalEdgeStyle;rounded=0;orthogonalLoop=1;jettySize=auto;html=1;exitX=1;exitY=0.5;exitDx=0;exitDy=0;entryX=0.5;entryY=0;entryDx=0;entryDy=0;" edge="1" parent="1" source="6GHNwG2XfLSbCcEsgPR_-10" target="6GHNwG2XfLSbCcEsgPR_-6">
          <mxGeometry relative="1" as="geometry">
            <Array as="points">
              <mxPoint x="960" y="160" />
              <mxPoint x="960" y="-40" />
              <mxPoint x="710" y="-40" />
            </Array>
          </mxGeometry>
        </mxCell>
        <mxCell id="6GHNwG2XfLSbCcEsgPR_-44" value="N" style="edgeLabel;html=1;align=center;verticalAlign=middle;resizable=0;points=[];" vertex="1" connectable="0" parent="6GHNwG2XfLSbCcEsgPR_-43">
          <mxGeometry x="-0.3774" relative="1" as="geometry">
            <mxPoint x="10" y="5" as="offset" />
          </mxGeometry>
        </mxCell>
        <mxCell id="6GHNwG2XfLSbCcEsgPR_-10" value="图片评估" style="rhombus;whiteSpace=wrap;html=1;rounded=1;fillColor=#f8cecc;strokeColor=#b85450;" vertex="1" parent="1">
          <mxGeometry x="820" y="120" width="80" height="80" as="geometry" />
        </mxCell>
        <mxCell id="6GHNwG2XfLSbCcEsgPR_-15" value="" style="edgeStyle=orthogonalEdgeStyle;rounded=0;orthogonalLoop=1;jettySize=auto;html=1;" edge="1" parent="1" source="6GHNwG2XfLSbCcEsgPR_-12" target="6GHNwG2XfLSbCcEsgPR_-14">
          <mxGeometry relative="1" as="geometry" />
        </mxCell>
        <mxCell id="6GHNwG2XfLSbCcEsgPR_-12" value="生成视频片段" style="whiteSpace=wrap;html=1;rounded=1;fillColor=#ffe6cc;strokeColor=#d79b00;" vertex="1" parent="1">
          <mxGeometry x="658" y="130" width="120" height="60" as="geometry" />
        </mxCell>
        <mxCell id="6GHNwG2XfLSbCcEsgPR_-17" value="" style="edgeStyle=orthogonalEdgeStyle;rounded=0;orthogonalLoop=1;jettySize=auto;html=1;" edge="1" parent="1" source="6GHNwG2XfLSbCcEsgPR_-14" target="6GHNwG2XfLSbCcEsgPR_-16">
          <mxGeometry relative="1" as="geometry" />
        </mxCell>
        <mxCell id="6GHNwG2XfLSbCcEsgPR_-14" value="合并所有片段" style="whiteSpace=wrap;html=1;rounded=1;fillColor=#ffe6cc;strokeColor=#d79b00;" vertex="1" parent="1">
          <mxGeometry x="500" y="130" width="120" height="60" as="geometry" />
        </mxCell>
        <mxCell id="6GHNwG2XfLSbCcEsgPR_-47" style="edgeStyle=orthogonalEdgeStyle;rounded=0;orthogonalLoop=1;jettySize=auto;html=1;exitX=0.5;exitY=1;exitDx=0;exitDy=0;entryX=0.5;entryY=0;entryDx=0;entryDy=0;" edge="1" parent="1" source="6GHNwG2XfLSbCcEsgPR_-16" target="6GHNwG2XfLSbCcEsgPR_-46">
          <mxGeometry relative="1" as="geometry" />
        </mxCell>
        <mxCell id="6GHNwG2XfLSbCcEsgPR_-16" value="合并音频及字幕" style="whiteSpace=wrap;html=1;rounded=1;fillColor=#ffe6cc;strokeColor=#d79b00;" vertex="1" parent="1">
          <mxGeometry x="350" y="130" width="120" height="60" as="geometry" />
        </mxCell>
        <mxCell id="6GHNwG2XfLSbCcEsgPR_-30" style="edgeStyle=orthogonalEdgeStyle;rounded=0;orthogonalLoop=1;jettySize=auto;html=1;exitX=1;exitY=0.5;exitDx=0;exitDy=0;entryX=0;entryY=0.5;entryDx=0;entryDy=0;" edge="1" parent="1" source="6GHNwG2XfLSbCcEsgPR_-18" target="6GHNwG2XfLSbCcEsgPR_-1">
          <mxGeometry relative="1" as="geometry" />
        </mxCell>
        <mxCell id="6GHNwG2XfLSbCcEsgPR_-18" value="歌词文件" style="shape=parallelogram;perimeter=parallelogramPerimeter;whiteSpace=wrap;html=1;fixedSize=1;fillColor=#fff2cc;strokeColor=#d6b656;" vertex="1" parent="1">
          <mxGeometry x="200" y="-20" width="120" height="60" as="geometry" />
        </mxCell>
        <mxCell id="6GHNwG2XfLSbCcEsgPR_-45" style="edgeStyle=orthogonalEdgeStyle;rounded=0;orthogonalLoop=1;jettySize=auto;html=1;exitX=1;exitY=0.5;exitDx=0;exitDy=0;" edge="1" parent="1" source="6GHNwG2XfLSbCcEsgPR_-19" target="6GHNwG2XfLSbCcEsgPR_-16">
          <mxGeometry relative="1" as="geometry" />
        </mxCell>
        <mxCell id="6GHNwG2XfLSbCcEsgPR_-19" value="音频文件" style="shape=parallelogram;perimeter=parallelogramPerimeter;whiteSpace=wrap;html=1;fixedSize=1;fillColor=#fff2cc;strokeColor=#d6b656;" vertex="1" parent="1">
          <mxGeometry x="190" y="130" width="120" height="60" as="geometry" />
        </mxCell>
        <mxCell id="6GHNwG2XfLSbCcEsgPR_-34" style="edgeStyle=orthogonalEdgeStyle;rounded=0;orthogonalLoop=1;jettySize=auto;html=1;entryX=0.5;entryY=1;entryDx=0;entryDy=0;" edge="1" parent="1" source="6GHNwG2XfLSbCcEsgPR_-21" target="6GHNwG2XfLSbCcEsgPR_-10">
          <mxGeometry relative="1" as="geometry" />
        </mxCell>
        <mxCell id="6GHNwG2XfLSbCcEsgPR_-21" value="畸变评估&lt;div&gt;美学评估&lt;/div&gt;&lt;div&gt;图文匹配度&lt;/div&gt;" style="ellipse;shape=cloud;whiteSpace=wrap;html=1;fillColor=#dae8fc;strokeColor=#6c8ebf;" vertex="1" parent="1">
          <mxGeometry x="765" y="225" width="190" height="110" as="geometry" />
        </mxCell>
        <mxCell id="6GHNwG2XfLSbCcEsgPR_-40" style="edgeStyle=orthogonalEdgeStyle;rounded=0;orthogonalLoop=1;jettySize=auto;html=1;exitX=0.625;exitY=0.2;exitDx=0;exitDy=0;exitPerimeter=0;entryX=0.5;entryY=1;entryDx=0;entryDy=0;" edge="1" parent="1" source="6GHNwG2XfLSbCcEsgPR_-39" target="6GHNwG2XfLSbCcEsgPR_-12">
          <mxGeometry relative="1" as="geometry" />
        </mxCell>
        <mxCell id="6GHNwG2XfLSbCcEsgPR_-39" value="平移缩放等运镜&lt;div&gt;animiatediff&lt;/div&gt;&lt;div&gt;svd&lt;/div&gt;" style="ellipse;shape=cloud;whiteSpace=wrap;html=1;fillColor=#dae8fc;strokeColor=#6c8ebf;" vertex="1" parent="1">
          <mxGeometry x="606" y="230" width="180" height="100" as="geometry" />
        </mxCell>
        <mxCell id="6GHNwG2XfLSbCcEsgPR_-46" value="输出视频" style="shape=parallelogram;perimeter=parallelogramPerimeter;whiteSpace=wrap;html=1;fixedSize=1;fillColor=#fff2cc;strokeColor=#d6b656;" vertex="1" parent="1">
          <mxGeometry x="350" y="250" width="120" height="60" as="geometry" />
        </mxCell>
      </root>
    </mxGraphModel>
  </diagram>
</mxfile>
